<?xml version="1.0" encoding="utf-8"?>
<svg viewBox="0 0 500 500" xmlns="http://www.w3.org/2000/svg">
  <path vector-effect="non-scaling-stroke" d="M 219.172 460.336 C 210.412 458.362 202.276 455.926 194.762 453.026 C 159.962 439.576 131.622 409.056 128.042 370.806 C 125.232 340.876 135.362 311.756 154.112 288.536 C 160.632 280.456 166.492 274.212 171.692 269.806 C 180.799 262.079 188.222 255.376 193.962 249.696 C 214.809 229.069 224.666 203.869 223.532 174.096 C 222.772 154.196 215.782 135.756 202.942 120.126 C 201.602 118.492 201.389 118.629 202.302 120.536 C 205.122 126.426 207.732 132.756 208.932 139.246 C 213.772 165.479 207.919 188.276 191.372 207.636 C 184.382 215.816 175.082 223.696 166.322 230.356 C 148.162 244.166 131.952 258.356 119.352 276.956 C 97.802 308.766 93.102 349.236 103.282 386.086 C 110.942 413.826 126.882 438.006 149.262 456.356 C 179.982 481.536 216.129 492.676 257.702 489.776 C 315.552 485.726 367.642 447.276 389.162 392.806 C 399.002 367.892 403.126 341.939 401.532 314.946 C 398.792 268.496 379.492 226.526 348.822 191.716 C 341.982 183.962 337.489 179.032 335.342 176.926 C 322.402 164.226 309.132 151.006 295.532 137.266 C 284.712 126.332 275.686 115.142 268.452 103.696 C 250.452 75.216 248.122 41.336 262.612 10.826 C 263.219 9.546 263.052 9.436 262.112 10.496 C 260.632 12.169 259.122 14.129 257.582 16.376 C 250.632 26.536 245.832 36.596 242.602 48.416 C 234.916 76.542 236.952 104.369 248.712 131.896 C 252.939 141.776 256.222 148.702 258.562 152.676 C 267.236 167.409 275.486 182.689 283.312 198.516 C 292.382 216.876 299.182 236.816 301.262 256.896 C 305.332 296.346 290.652 334.446 263.852 363.556 C 262.919 364.569 263.042 364.719 264.222 364.006 C 284.689 351.619 300.109 334.596 310.482 312.936 C 322.769 287.289 325.292 260.779 318.052 233.406 C 316.059 225.859 313.602 218.589 310.682 211.596 C 309.956 209.849 310.119 209.762 311.172 211.336 C 335.202 247.166 355.472 290.106 357.572 332.556 C 359.112 363.506 350.362 396.486 328.692 419.446 C 314.512 434.466 297.576 442.742 277.882 444.276 C 255.992 445.976 235.472 437.596 223.502 418.586 C 211.342 399.246 214.632 375.316 222.682 355.396 C 228.272 341.566 234.272 327.976 237.162 313.106 C 239.762 299.712 238.512 286.589 233.412 273.736 C 232.339 271.022 232.072 271.102 232.612 273.976 C 238.922 307.546 217.872 326.266 197.002 347.526 C 188.152 356.536 180.942 367.616 177.992 379.896 C 171.922 405.176 179.722 429.536 199.282 446.966 C 205.602 452.606 212.369 456.886 219.582 459.806 C 219.616 459.819 219.626 459.846 219.612 459.886 L 219.542 460.126 C 219.482 460.306 219.359 460.376 219.172 460.336" style="fill-rule: nonzero; stroke: rgb(66, 154, 149); stroke-width: 0px; paint-order: stroke; fill: currentColor;" transform="matrix(0.9999999999999999, 0, 0, 0.9999999999999999, 0, 0)"/>
</svg>
